<?xml version="1.0" encoding="UTF-8" standalone="no"?>
<!-- Created with Inkscape (http://www.inkscape.org/) -->

<svg
   xmlns:dc="http://purl.org/dc/elements/1.1/"
   xmlns:cc="http://creativecommons.org/ns#"
   xmlns:rdf="http://www.w3.org/1999/02/22-rdf-syntax-ns#"
   xmlns:svg="http://www.w3.org/2000/svg"
   xmlns="http://www.w3.org/2000/svg"
   xmlns:sodipodi="http://sodipodi.sourceforge.net/DTD/sodipodi-0.dtd"
   xmlns:inkscape="http://www.inkscape.org/namespaces/inkscape"
   width="56.592762"
   height="57"
   viewBox="0 0 14.973502 15.081249"
   version="1.1"
   id="svg8"
   sodipodi:docname="cah-icon-57x57.svg"
   inkscape:version="0.92.1 r15371">
  <defs
     id="defs2" />
  <sodipodi:namedview
     id="base"
     pagecolor="#000000"
     bordercolor="#666666"
     borderopacity="1.0"
     inkscape:pageopacity="1"
     inkscape:pageshadow="2"
     inkscape:zoom="7.919596"
     inkscape:cx="31.083995"
     inkscape:cy="27.823173"
     inkscape:document-units="mm"
     inkscape:current-layer="layer1"
     showgrid="false"
     inkscape:snap-object-midpoints="false"
     fit-margin-top="0"
     fit-margin-left="0"
     fit-margin-right="0"
     fit-margin-bottom="0"
     inkscape:window-width="1920"
     inkscape:window-height="1017"
     inkscape:window-x="1912"
     inkscape:window-y="-8"
     inkscape:window-maximized="1"
     units="px">
    <inkscape:grid
       type="xygrid"
       id="grid3680"
       originx="-76.061001"
       originy="-209.1367" />
  </sodipodi:namedview>
  <metadata
     id="metadata5">
    <rdf:RDF>
      <cc:Work
         rdf:about="">
        <dc:format>image/svg+xml</dc:format>
        <dc:type
           rdf:resource="http://purl.org/dc/dcmitype/StillImage" />
        <dc:title></dc:title>
      </cc:Work>
    </rdf:RDF>
  </metadata>
  <g
     inkscape:label="Layer 1"
     inkscape:groupmode="layer"
     id="layer1"
     transform="translate(-76.06099,-72.782026)">
    <flowRoot
       xml:space="preserve"
       id="flowRoot4509"
       style="font-style:normal;font-weight:normal;font-size:40px;line-height:125%;font-family:Sans;letter-spacing:0px;word-spacing:0px;fill:#000000;fill-opacity:1;stroke:none;stroke-width:1px;stroke-linecap:butt;stroke-linejoin:miter;stroke-opacity:1"><flowRegion
         id="flowRegion4511"><rect
           id="rect4513"
           width="320.21835"
           height="274.76151"
           x="-45.456863"
           y="-24.529238" /></flowRegion><flowPara
         id="flowPara4515" /></flowRoot>    <flowRoot
       xml:space="preserve"
       id="flowRoot4517"
       style="font-style:normal;font-weight:normal;font-size:40px;line-height:125%;font-family:Sans;letter-spacing:0px;word-spacing:0px;fill:#000000;fill-opacity:1;stroke:none;stroke-width:1px;stroke-linecap:butt;stroke-linejoin:miter;stroke-opacity:1"><flowRegion
         id="flowRegion4519"><rect
           id="rect4521"
           width="250.51784"
           height="226.27417"
           x="-35.860416"
           y="-41.701832" /></flowRegion><flowPara
         id="flowPara4523" /></flowRoot>    <flowRoot
       xml:space="preserve"
       id="flowRoot4525"
       style="font-style:normal;font-weight:normal;font-size:40px;line-height:125%;font-family:Sans;letter-spacing:0px;word-spacing:0px;fill:#000000;fill-opacity:1;stroke:none;stroke-width:1px;stroke-linecap:butt;stroke-linejoin:miter;stroke-opacity:1"><flowRegion
         id="flowRegion4527"><rect
           id="rect4529"
           width="96.469566"
           height="78.791901"
           x="68.185295"
           y="61.333729" /></flowRegion><flowPara
         id="flowPara4531" /></flowRoot>    <text
       xml:space="preserve"
       style="font-style:normal;font-variant:normal;font-weight:normal;font-stretch:normal;font-size:10.58333302px;line-height:125%;font-family:Impact;-inkscape-font-specification:Impact;letter-spacing:0px;word-spacing:0px;fill:#ffffff;fill-opacity:1;stroke:none;stroke-width:0.26458332px;stroke-linecap:butt;stroke-linejoin:miter;stroke-opacity:1"
       x="72.060715"
       y="74.18679"
       id="text4535"><tspan
         sodipodi:role="line"
         id="tspan4533"
         x="72.060715"
         y="84.781578"
         style="font-style:normal;font-variant:normal;font-weight:normal;font-stretch:normal;font-family:Impact;-inkscape-font-specification:Impact;fill:#ffffff;fill-opacity:1;stroke-width:0.26458332px" /></text>
    <g
       id="g4598"
       transform="matrix(0.89973355,0,0,0.98814638,7.6263662,1.0415006)">
      <g
         id="text4539"
         style="font-style:normal;font-variant:normal;font-weight:bold;font-stretch:normal;font-size:4.98975754px;line-height:94.99999881%;font-family:Roboto;-inkscape-font-specification:'Roboto, Bold';font-variant-ligatures:normal;font-variant-caps:normal;font-variant-numeric:normal;font-feature-settings:normal;text-align:start;letter-spacing:0px;word-spacing:0px;writing-mode:lr-tb;text-anchor:start;fill:#ffffff;fill-opacity:1;stroke:none;stroke-width:0.12474428px;stroke-linecap:butt;stroke-linejoin:miter;stroke-opacity:1"
         transform="scale(0.88000569,1.1363563)"
         aria-label="Cards Against Mobile">
        <path
           id="path4509"
           style="font-style:normal;font-variant:normal;font-weight:bold;font-stretch:normal;font-size:4.98975754px;line-height:94.99999881%;font-family:Roboto;-inkscape-font-specification:'Roboto, Bold';font-variant-ligatures:normal;font-variant-caps:normal;font-variant-numeric:normal;font-feature-settings:normal;text-align:start;writing-mode:lr-tb;text-anchor:start;fill:#ffffff;fill-opacity:1;stroke-width:0.12474428px"
           d="m 89.516873,66.609252 q -0.01949,0.270441 -0.121821,0.497027 -0.102329,0.226586 -0.282623,0.389825 -0.180294,0.160803 -0.438553,0.253386 -0.255822,0.09015 -0.584737,0.09015 -0.341096,0 -0.613974,-0.116948 -0.270441,-0.119383 -0.46048,-0.341096 -0.187604,-0.221713 -0.289933,-0.536009 -0.09989,-0.316733 -0.09989,-0.708994 v -0.233895 q 0,-0.392261 0.104765,-0.708994 0.104766,-0.316733 0.294805,-0.538445 0.192476,-0.221713 0.465354,-0.341097 0.272877,-0.119384 0.609101,-0.119384 0.331351,0 0.584737,0.09502 0.255823,0.09258 0.43368,0.260695 0.177858,0.165676 0.27775,0.397134 0.09989,0.229022 0.126693,0.499463 h -0.730921 q -0.01218,-0.158366 -0.05604,-0.280186 -0.04142,-0.121821 -0.121821,-0.204658 -0.0804,-0.08284 -0.207094,-0.124257 -0.126693,-0.04386 -0.306987,-0.04386 -0.370334,0 -0.553064,0.270441 -0.180294,0.268004 -0.180294,0.83325 v 0.238768 q 0,0.275314 0.03898,0.482408 0.04142,0.207094 0.126693,0.34597 0.08771,0.138875 0.22415,0.20953 0.138875,0.06822 0.333787,0.06822 0.172985,0 0.297242,-0.03898 0.126693,-0.03898 0.20953,-0.116947 0.08527,-0.0804 0.131566,-0.199785 0.04629,-0.119384 0.05847,-0.277751 z"
           inkscape:connector-curvature="0" />
        <path
           id="path4511"
           style="font-style:normal;font-variant:normal;font-weight:bold;font-stretch:normal;font-size:4.98975754px;line-height:94.99999881%;font-family:Roboto;-inkscape-font-specification:'Roboto, Bold';font-variant-ligatures:normal;font-variant-caps:normal;font-variant-numeric:normal;font-feature-settings:normal;text-align:start;writing-mode:lr-tb;text-anchor:start;fill:#ffffff;fill-opacity:1;stroke-width:0.12474428px"
           d="m 91.478179,67.790909 q -0.04873,-0.09502 -0.07066,-0.236331 -0.107202,0.119383 -0.270441,0.202221 -0.160803,0.08284 -0.394698,0.08284 -0.190039,0 -0.355715,-0.05847 -0.163239,-0.05847 -0.285059,-0.163239 -0.119384,-0.104765 -0.187603,-0.248513 -0.06822,-0.146185 -0.06822,-0.319169 0,-0.207095 0.07553,-0.367897 0.07796,-0.160803 0.231458,-0.272878 0.153494,-0.112074 0.380079,-0.170548 0.229022,-0.05847 0.531137,-0.05847 h 0.314296 v -0.151057 q 0,-0.18273 -0.09502,-0.292369 -0.09258,-0.109638 -0.294805,-0.109638 -0.177857,0 -0.280186,0.08527 -0.09989,0.08527 -0.09989,0.233895 h -0.704121 q 0,-0.170548 0.07796,-0.324042 0.0804,-0.153493 0.226586,-0.268004 0.146184,-0.114511 0.353278,-0.180294 0.207095,-0.06822 0.462917,-0.06822 0.229022,0 0.423935,0.05847 0.194912,0.05847 0.336224,0.175421 0.141311,0.114511 0.219276,0.289933 0.0804,0.172984 0.0804,0.404443 v 1.115873 q 0,0.112075 0.0073,0.202222 0.0073,0.08771 0.01949,0.160803 0.01218,0.07066 0.03167,0.129129 0.01949,0.05604 0.04629,0.107202 v 0.04142 z m -0.582301,-0.489718 q 0.09015,0 0.165675,-0.02193 0.07796,-0.02193 0.138875,-0.05604 0.06091,-0.03655 0.104766,-0.08284 0.04629,-0.04629 0.07309,-0.09502 V 66.59219 h -0.289932 q -0.138875,0 -0.241204,0.03167 -0.102329,0.02924 -0.168112,0.08527 -0.06578,0.0536 -0.09746,0.129129 -0.03167,0.07309 -0.03167,0.160803 0,0.131566 0.09258,0.21684 0.09258,0.08527 0.253386,0.08527 z"
           inkscape:connector-curvature="0" />
        <path
           id="path4513"
           style="font-style:normal;font-variant:normal;font-weight:bold;font-stretch:normal;font-size:4.98975754px;line-height:94.99999881%;font-family:Roboto;-inkscape-font-specification:'Roboto, Bold';font-variant-ligatures:normal;font-variant-caps:normal;font-variant-numeric:normal;font-feature-settings:normal;text-align:start;writing-mode:lr-tb;text-anchor:start;fill:#ffffff;fill-opacity:1;stroke-width:0.12474428px"
           d="m 94.111932,65.814984 q -0.0536,-0.0073 -0.126693,-0.01218 -0.07066,-0.0073 -0.126693,-0.0073 -0.207094,0 -0.336224,0.07066 -0.126693,0.06822 -0.187603,0.199785 v 1.724975 h -0.704121 v -2.63619 h 0.665139 l 0.01949,0.314296 q 0.09989,-0.170549 0.246077,-0.265568 0.146184,-0.09746 0.341096,-0.09746 0.05604,0 0.116948,0.0097 0.06335,0.0097 0.102329,0.02193 z"
           inkscape:connector-curvature="0" />
        <path
           id="path4515"
           style="font-style:normal;font-variant:normal;font-weight:bold;font-stretch:normal;font-size:4.98975754px;line-height:94.99999881%;font-family:Roboto;-inkscape-font-specification:'Roboto, Bold';font-variant-ligatures:normal;font-variant-caps:normal;font-variant-numeric:normal;font-feature-settings:normal;text-align:start;writing-mode:lr-tb;text-anchor:start;fill:#ffffff;fill-opacity:1;stroke-width:0.12474428px"
           d="m 94.294663,66.453322 q 0,-0.299677 0.06822,-0.548191 0.07066,-0.248513 0.202222,-0.426371 0.131566,-0.177857 0.324042,-0.275313 0.192476,-0.09746 0.438553,-0.09746 0.202221,0 0.358151,0.07553 0.158366,0.07553 0.27775,0.211967 v -1.344895 h 0.706558 v 3.742318 h -0.635902 l -0.03411,-0.280187 q -0.124256,0.15593 -0.289932,0.243641 -0.165675,0.08527 -0.387388,0.08527 -0.243641,0 -0.436117,-0.09989 -0.190039,-0.102329 -0.321605,-0.280186 -0.131566,-0.177858 -0.202222,-0.421498 -0.06822,-0.246077 -0.06822,-0.533573 z m 0.704121,0.05116 q 0,0.160803 0.0268,0.299678 0.0268,0.138875 0.08528,0.24364 0.06091,0.102329 0.155929,0.163239 0.09746,0.05847 0.236332,0.05847 0.170548,0 0.282623,-0.07309 0.114511,-0.07309 0.177857,-0.202222 v -1.040345 q -0.06335,-0.131565 -0.177857,-0.202221 -0.112075,-0.07309 -0.27775,-0.07309 -0.138876,0 -0.236332,0.06091 -0.09746,0.05847 -0.158366,0.163239 -0.05847,0.104765 -0.08771,0.246077 -0.0268,0.141311 -0.0268,0.30455 z"
           inkscape:connector-curvature="0" />
        <path
           id="path4517"
           style="font-style:normal;font-variant:normal;font-weight:bold;font-stretch:normal;font-size:4.98975754px;line-height:94.99999881%;font-family:Roboto;-inkscape-font-specification:'Roboto, Bold';font-variant-ligatures:normal;font-variant-caps:normal;font-variant-numeric:normal;font-feature-settings:normal;text-align:start;writing-mode:lr-tb;text-anchor:start;fill:#ffffff;fill-opacity:1;stroke-width:0.12474428px"
           d="m 98.638773,67.062424 q 0,-0.05604 -0.02193,-0.102329 -0.02193,-0.04629 -0.08284,-0.08527 -0.06091,-0.04142 -0.165675,-0.07796 -0.104766,-0.03655 -0.270441,-0.07066 -0.202222,-0.04386 -0.375206,-0.109638 -0.170549,-0.06578 -0.297242,-0.16324 -0.124257,-0.09746 -0.194912,-0.226585 -0.07066,-0.12913 -0.07066,-0.299678 0,-0.165676 0.07066,-0.314296 0.07309,-0.148621 0.207094,-0.260696 0.136439,-0.114511 0.331351,-0.180294 0.197349,-0.06578 0.443426,-0.06578 0.255822,0 0.46048,0.06335 0.204659,0.06335 0.34597,0.177858 0.143748,0.112074 0.219276,0.268004 0.07796,0.15593 0.07796,0.341097 h -0.704121 q 0,-0.151057 -0.09746,-0.248514 -0.09746,-0.09989 -0.30455,-0.09989 -0.177858,0 -0.275314,0.0804 -0.09746,0.0804 -0.09746,0.204658 0,0.05847 0.02436,0.104766 0.0268,0.04385 0.08284,0.08284 0.05847,0.03655 0.151057,0.06822 0.09502,0.03167 0.231459,0.05847 0.214404,0.04142 0.397134,0.102329 0.18273,0.06091 0.314296,0.158366 0.134003,0.09502 0.209531,0.233895 0.07553,0.136438 0.07553,0.331351 0,0.175421 -0.07797,0.324042 -0.07796,0.146184 -0.22415,0.253386 -0.143747,0.107202 -0.348406,0.168112 -0.204658,0.06091 -0.458044,0.06091 -0.27775,0 -0.489717,-0.07796 -0.211967,-0.07797 -0.358152,-0.204658 -0.143748,-0.126693 -0.21684,-0.285059 -0.07309,-0.158367 -0.07309,-0.31917 h 0.667575 q 0.0049,0.102329 0.04385,0.177858 0.04142,0.07309 0.107202,0.119384 0.06578,0.04629 0.151057,0.06822 0.08771,0.02193 0.182731,0.02193 0.202221,0 0.30455,-0.07553 0.104766,-0.07797 0.104766,-0.202221 z"
           inkscape:connector-curvature="0" />
        <path
           id="path4519"
           style="font-style:normal;font-variant:normal;font-weight:bold;font-stretch:normal;font-size:4.98975754px;line-height:94.99999881%;font-family:Roboto;-inkscape-font-specification:'Roboto, Bold';font-variant-ligatures:normal;font-variant-caps:normal;font-variant-numeric:normal;font-feature-settings:normal;text-align:start;writing-mode:lr-tb;text-anchor:start;fill:#ffffff;fill-opacity:1;stroke-width:0.12474428px"
           d="m 88.734787,71.800257 h -1.281549 l -0.243641,0.730921 h -0.777213 l 1.320531,-3.547405 h 0.677321 l 1.327841,3.547405 H 88.980863 Z M 87.650586,71.20821 h 0.886852 l -0.445862,-1.32784 z"
           inkscape:connector-curvature="0" />
        <path
           id="path4521"
           style="font-style:normal;font-variant:normal;font-weight:bold;font-stretch:normal;font-size:4.98975754px;line-height:94.99999881%;font-family:Roboto;-inkscape-font-specification:'Roboto, Bold';font-variant-ligatures:normal;font-variant-caps:normal;font-variant-numeric:normal;font-feature-settings:normal;text-align:start;writing-mode:lr-tb;text-anchor:start;fill:#ffffff;fill-opacity:1;stroke-width:0.12474428px"
           d="m 89.94568,71.193592 q 0,-0.299678 0.07309,-0.548191 0.07553,-0.248513 0.211967,-0.426371 0.138875,-0.177858 0.336224,-0.275314 0.197349,-0.09746 0.445862,-0.09746 0.231459,0 0.394698,0.07797 0.165675,0.07796 0.280186,0.219276 l 0.02924,-0.248513 h 0.638338 v 2.546043 q 0,0.270441 -0.09258,0.479972 -0.09258,0.209531 -0.260695,0.353279 -0.165676,0.146184 -0.399571,0.219276 -0.231458,0.07553 -0.514081,0.07553 -0.12182,0 -0.258259,-0.02436 -0.136439,-0.02436 -0.270441,-0.07553 -0.131566,-0.05116 -0.25095,-0.129129 -0.119384,-0.07796 -0.202221,-0.185167 l 0.311859,-0.428807 q 0.124257,0.138875 0.282623,0.21684 0.160803,0.07796 0.355716,0.07796 0.280186,0 0.436116,-0.151057 0.15593,-0.148621 0.15593,-0.423935 v -0.141311 q -0.116948,0.131566 -0.275314,0.204658 -0.158366,0.07066 -0.365461,0.07066 -0.246076,0 -0.443425,-0.09989 -0.194913,-0.102329 -0.333788,-0.280187 -0.136438,-0.177857 -0.211967,-0.421498 -0.07309,-0.246077 -0.07309,-0.533572 z m 0.704121,0.05117 q 0,0.160802 0.03167,0.299677 0.03167,0.138875 0.09746,0.243641 0.06822,0.102329 0.168112,0.163239 0.102329,0.05847 0.241204,0.05847 0.168112,0 0.280187,-0.06335 0.114511,-0.06335 0.180294,-0.177857 v -1.108565 q -0.06822,-0.116947 -0.180294,-0.177857 -0.109638,-0.06335 -0.275314,-0.06335 -0.138875,0 -0.241204,0.06091 -0.09989,0.05847 -0.168112,0.16324 -0.06822,0.104765 -0.102329,0.246076 -0.03167,0.141312 -0.03167,0.304551 z"
           inkscape:connector-curvature="0" />
        <path
           id="path4523"
           style="font-style:normal;font-variant:normal;font-weight:bold;font-stretch:normal;font-size:4.98975754px;line-height:94.99999881%;font-family:Roboto;-inkscape-font-specification:'Roboto, Bold';font-variant-ligatures:normal;font-variant-caps:normal;font-variant-numeric:normal;font-feature-settings:normal;text-align:start;writing-mode:lr-tb;text-anchor:start;fill:#ffffff;fill-opacity:1;stroke-width:0.12474428px"
           d="m 94.421356,72.531178 q -0.04873,-0.09502 -0.07066,-0.236331 -0.107202,0.119384 -0.270441,0.202222 -0.160802,0.08284 -0.394697,0.08284 -0.19004,0 -0.355715,-0.05847 -0.16324,-0.05847 -0.28506,-0.163239 -0.119384,-0.104766 -0.187603,-0.248514 -0.06822,-0.146184 -0.06822,-0.319169 0,-0.207094 0.07553,-0.367897 0.07797,-0.160803 0.231459,-0.272877 0.153493,-0.112075 0.380079,-0.170549 0.229022,-0.05847 0.531136,-0.05847 h 0.314296 v -0.151057 q 0,-0.182731 -0.09502,-0.292369 -0.09258,-0.109638 -0.294805,-0.109638 -0.177858,0 -0.280187,0.08527 -0.09989,0.08527 -0.09989,0.233895 h -0.704121 q 0,-0.170549 0.07797,-0.324042 0.0804,-0.153494 0.226586,-0.268005 0.146184,-0.114511 0.353279,-0.180294 0.207094,-0.06822 0.462917,-0.06822 0.229022,0 0.423934,0.05847 0.194913,0.05847 0.336224,0.175421 0.141312,0.114511 0.219277,0.289932 0.0804,0.172985 0.0804,0.404443 v 1.115874 q 0,0.112075 0.0073,0.202222 0.0073,0.08771 0.01949,0.160802 0.01218,0.07066 0.03167,0.12913 0.01949,0.05604 0.04629,0.107202 v 0.04142 z m -0.582301,-0.489717 q 0.09015,0 0.165676,-0.02193 0.07796,-0.02193 0.138875,-0.05604 0.06091,-0.03655 0.104765,-0.08284 0.04629,-0.04629 0.07309,-0.09502 V 71.33246 h -0.289932 q -0.138875,0 -0.241204,0.03167 -0.102329,0.02924 -0.168112,0.08527 -0.06578,0.0536 -0.09746,0.129129 -0.03167,0.07309 -0.03167,0.160803 0,0.131566 0.09258,0.21684 0.09258,0.08527 0.253386,0.08527 z"
           inkscape:connector-curvature="0" />
        <path
           id="path4525"
           style="font-style:normal;font-variant:normal;font-weight:bold;font-stretch:normal;font-size:4.98975754px;line-height:94.99999881%;font-family:Roboto;-inkscape-font-specification:'Roboto, Bold';font-variant-ligatures:normal;font-variant-caps:normal;font-variant-numeric:normal;font-feature-settings:normal;text-align:start;writing-mode:lr-tb;text-anchor:start;fill:#ffffff;fill-opacity:1;stroke-width:0.12474428px"
           d="m 96.316879,72.531178 h -0.706558 v -2.63619 h 0.706558 z m -0.747977,-3.318383 q 0,-0.158367 0.104766,-0.260696 0.107202,-0.102329 0.289932,-0.102329 0.09015,0 0.163239,0.0268 0.07309,0.0268 0.124257,0.07553 0.05116,0.04873 0.07796,0.116948 0.02924,0.06578 0.02924,0.143748 0,0.0804 -0.02924,0.14862 -0.0268,0.06578 -0.07796,0.114511 -0.05116,0.04873 -0.124257,0.07553 -0.07309,0.0268 -0.163239,0.0268 -0.09015,0 -0.163239,-0.0268 -0.07309,-0.0268 -0.124257,-0.07553 -0.05116,-0.04873 -0.0804,-0.114511 -0.0268,-0.06822 -0.0268,-0.14862 z"
           inkscape:connector-curvature="0" />
        <path
           id="path4527"
           style="font-style:normal;font-variant:normal;font-weight:bold;font-stretch:normal;font-size:4.98975754px;line-height:94.99999881%;font-family:Roboto;-inkscape-font-specification:'Roboto, Bold';font-variant-ligatures:normal;font-variant-caps:normal;font-variant-numeric:normal;font-feature-settings:normal;text-align:start;writing-mode:lr-tb;text-anchor:start;fill:#ffffff;fill-opacity:1;stroke-width:0.12474428px"
           d="m 97.547263,69.894988 0.02193,0.304551 q 0.136438,-0.170549 0.328914,-0.260696 0.192476,-0.09258 0.428808,-0.09258 0.187603,0 0.341096,0.0536 0.153494,0.05116 0.263132,0.170548 0.109638,0.119384 0.168112,0.31186 0.06091,0.192476 0.06091,0.472663 v 1.676246 h -0.704121 v -1.681119 q 0,-0.126693 -0.02924,-0.209531 -0.0268,-0.08284 -0.0804,-0.131566 -0.0536,-0.04873 -0.131566,-0.06822 -0.07797,-0.02193 -0.180294,-0.02193 -0.15593,0 -0.268004,0.06822 -0.109639,0.06822 -0.177858,0.185166 v 1.858977 h -0.704121 v -2.63619 z"
           inkscape:connector-curvature="0" />
        <path
           id="path4529"
           style="font-style:normal;font-variant:normal;font-weight:bold;font-stretch:normal;font-size:4.98975754px;line-height:94.99999881%;font-family:Roboto;-inkscape-font-specification:'Roboto, Bold';font-variant-ligatures:normal;font-variant-caps:normal;font-variant-numeric:normal;font-feature-settings:normal;text-align:start;writing-mode:lr-tb;text-anchor:start;fill:#ffffff;fill-opacity:1;stroke-width:0.12474428px"
           d="m 101.11416,71.802693 q 0,-0.05604 -0.0219,-0.102329 -0.0219,-0.04629 -0.0828,-0.08527 -0.0609,-0.04142 -0.16567,-0.07796 -0.10477,-0.03655 -0.27044,-0.07066 -0.20222,-0.04386 -0.37521,-0.109638 -0.17055,-0.06578 -0.297239,-0.163239 -0.124257,-0.09746 -0.194913,-0.226586 -0.07066,-0.129129 -0.07066,-0.299677 0,-0.165676 0.07066,-0.314297 0.07309,-0.14862 0.207095,-0.260695 0.136437,-0.114511 0.331347,-0.180294 0.19735,-0.06578 0.44343,-0.06578 0.25582,0 0.46048,0.06335 0.20466,0.06335 0.34597,0.177857 0.14375,0.112075 0.21928,0.268005 0.078,0.15593 0.078,0.341096 h -0.70412 q 0,-0.151057 -0.0975,-0.248513 -0.0975,-0.09989 -0.30455,-0.09989 -0.17785,0 -0.27531,0.0804 -0.0975,0.0804 -0.0975,0.204658 0,0.05847 0.0244,0.104765 0.0268,0.04386 0.0828,0.08284 0.0585,0.03655 0.15106,0.06822 0.095,0.03167 0.23146,0.05847 0.2144,0.04142 0.39713,0.102329 0.18273,0.06091 0.3143,0.158366 0.134,0.09502 0.20953,0.233895 0.0755,0.136439 0.0755,0.331351 0,0.175422 -0.078,0.324042 -0.078,0.146185 -0.22415,0.253386 -0.14375,0.107202 -0.34841,0.168112 -0.20466,0.06091 -0.45804,0.06091 -0.27775,0 -0.48972,-0.07797 -0.211969,-0.07797 -0.358153,-0.204658 -0.143748,-0.126694 -0.21684,-0.28506 -0.07309,-0.158366 -0.07309,-0.319169 H 100.22 q 0.005,0.102329 0.0439,0.177858 0.0414,0.07309 0.1072,0.119383 0.0658,0.04629 0.15105,0.06822 0.0877,0.02193 0.18273,0.02193 0.20223,0 0.30455,-0.07553 0.10477,-0.07796 0.10477,-0.202222 z"
           inkscape:connector-curvature="0" />
        <path
           id="path4531"
           style="font-style:normal;font-variant:normal;font-weight:bold;font-stretch:normal;font-size:4.98975754px;line-height:94.99999881%;font-family:Roboto;-inkscape-font-specification:'Roboto, Bold';font-variant-ligatures:normal;font-variant-caps:normal;font-variant-numeric:normal;font-feature-settings:normal;text-align:start;writing-mode:lr-tb;text-anchor:start;fill:#ffffff;fill-opacity:1;stroke-width:0.12474428px"
           d="m 103.09252,69.246904 v 0.648084 h 0.45074 v 0.516518 h -0.45074 v 1.315659 q 0,0.08284 0.0171,0.136438 0.0171,0.0536 0.0512,0.08527 0.0341,0.02924 0.0828,0.04142 0.0512,0.0097 0.11938,0.0097 0.0633,0 0.11451,-0.0049 0.0536,-0.0049 0.0926,-0.01218 v 0.533573 q -0.0877,0.0268 -0.19248,0.04386 -0.10233,0.01949 -0.23389,0.01949 -0.17299,0 -0.31186,-0.04386 -0.13888,-0.04142 -0.23877,-0.134002 -0.0975,-0.09258 -0.15106,-0.241204 -0.0536,-0.148621 -0.0536,-0.358152 v -1.391187 h -0.38495 v -0.516518 h 0.38495 v -0.648084 z"
           inkscape:connector-curvature="0" />
        <path
           id="path4533"
           style="font-style:normal;font-variant:normal;font-weight:bold;font-stretch:normal;font-size:4.98975754px;line-height:94.99999881%;font-family:Roboto;-inkscape-font-specification:'Roboto, Bold';font-variant-ligatures:normal;font-variant-caps:normal;font-variant-numeric:normal;font-feature-settings:normal;text-align:start;writing-mode:lr-tb;text-anchor:start;fill:#ffffff;fill-opacity:1;stroke-width:0.12474428px"
           d="m 87.687132,73.724042 0.911216,2.572844 0.906343,-2.572844 h 0.959943 v 3.547406 h -0.733358 v -0.969689 l 0.07309,-1.67381 -0.957507,2.643499 H 88.34496 l -0.955071,-2.641063 0.07309,1.671374 v 0.969689 h -0.730921 v -3.547406 z"
           inkscape:connector-curvature="0" />
        <path
           id="path4535"
           style="font-style:normal;font-variant:normal;font-weight:bold;font-stretch:normal;font-size:4.98975754px;line-height:94.99999881%;font-family:Roboto;-inkscape-font-specification:'Roboto, Bold';font-variant-ligatures:normal;font-variant-caps:normal;font-variant-numeric:normal;font-feature-settings:normal;text-align:start;writing-mode:lr-tb;text-anchor:start;fill:#ffffff;fill-opacity:1;stroke-width:0.12474428px"
           d="m 90.94217,75.928989 q 0,-0.287496 0.08284,-0.533573 0.08284,-0.246077 0.241204,-0.423934 0.158367,-0.180294 0.389825,-0.282623 0.233895,-0.102329 0.531137,-0.102329 0.299677,0 0.533572,0.102329 0.233895,0.102329 0.392261,0.282623 0.160803,0.177857 0.243641,0.423934 0.08284,0.246077 0.08284,0.533573 v 0.05116 q 0,0.289933 -0.08284,0.536009 -0.08284,0.243641 -0.243641,0.423935 -0.158366,0.177857 -0.389824,0.280187 -0.231459,0.09989 -0.531137,0.09989 -0.299677,0 -0.533572,-0.09989 -0.231459,-0.10233 -0.392262,-0.280187 -0.158366,-0.180294 -0.241204,-0.423935 -0.08284,-0.246076 -0.08284,-0.536009 z m 0.704121,0.05116 q 0,0.160803 0.02924,0.302115 0.02924,0.141311 0.09258,0.246076 0.06578,0.102329 0.168112,0.16324 0.104765,0.06091 0.255822,0.06091 0.146185,0 0.248514,-0.06091 0.104765,-0.06091 0.170548,-0.16324 0.06578,-0.104765 0.09502,-0.246076 0.02924,-0.141312 0.02924,-0.302115 v -0.05116 q 0,-0.15593 -0.02924,-0.294805 -0.02924,-0.141312 -0.09502,-0.246077 -0.06578,-0.107202 -0.170548,-0.168112 -0.104766,-0.06335 -0.253386,-0.06335 -0.146185,0 -0.25095,0.06335 -0.102329,0.06091 -0.168112,0.168112 -0.06335,0.104765 -0.09258,0.246077 -0.02924,0.138875 -0.02924,0.294805 z"
           inkscape:connector-curvature="0" />
        <path
           id="path4537"
           style="font-style:normal;font-variant:normal;font-weight:bold;font-stretch:normal;font-size:4.98975754px;line-height:94.99999881%;font-family:Roboto;-inkscape-font-specification:'Roboto, Bold';font-variant-ligatures:normal;font-variant-caps:normal;font-variant-numeric:normal;font-feature-settings:normal;text-align:start;writing-mode:lr-tb;text-anchor:start;fill:#ffffff;fill-opacity:1;stroke-width:0.12474428px"
           d="m 96.243787,75.977717 q 0,0.297241 -0.06335,0.543318 -0.06335,0.246077 -0.192476,0.423935 -0.126693,0.177857 -0.319169,0.27775 -0.192476,0.09746 -0.450735,0.09746 -0.229022,0 -0.397134,-0.08527 -0.165675,-0.08771 -0.287496,-0.243641 l -0.03167,0.280187 H 93.868292 V 73.52913 h 0.704121 v 1.342459 q 0.116947,-0.136439 0.272877,-0.209531 0.158367,-0.07553 0.367897,-0.07553 0.258259,0 0.450735,0.09989 0.194913,0.09989 0.324042,0.27775 0.12913,0.177858 0.192476,0.423935 0.06335,0.246077 0.06335,0.538445 z m -0.704121,-0.05116 q 0,-0.155929 -0.02193,-0.294805 -0.02193,-0.141311 -0.0804,-0.246076 -0.05604,-0.104766 -0.153494,-0.165676 -0.09746,-0.06091 -0.248513,-0.06091 -0.177858,0 -0.289932,0.07309 -0.112075,0.07066 -0.172985,0.202222 v 1.040345 q 0.06091,0.131565 0.172985,0.204658 0.112074,0.07309 0.294805,0.07309 0.14862,0 0.24364,-0.05847 0.09746,-0.05847 0.153494,-0.160803 0.05847,-0.102329 0.0804,-0.24364 0.02193,-0.143748 0.02193,-0.31186 z"
           inkscape:connector-curvature="0" />
        <path
           id="path4539"
           style="font-style:normal;font-variant:normal;font-weight:bold;font-stretch:normal;font-size:4.98975754px;line-height:94.99999881%;font-family:Roboto;-inkscape-font-specification:'Roboto, Bold';font-variant-ligatures:normal;font-variant-caps:normal;font-variant-numeric:normal;font-feature-settings:normal;text-align:start;writing-mode:lr-tb;text-anchor:start;fill:#ffffff;fill-opacity:1;stroke-width:0.12474428px"
           d="m 97.42788,77.271448 h -0.706558 v -2.63619 h 0.706558 z m -0.747977,-3.318384 q 0,-0.158366 0.104766,-0.260695 0.107202,-0.102329 0.289932,-0.102329 0.09015,0 0.163239,0.0268 0.07309,0.0268 0.124257,0.07553 0.05116,0.04873 0.07796,0.116947 0.02924,0.06578 0.02924,0.143748 0,0.0804 -0.02924,0.148621 -0.0268,0.06578 -0.07796,0.114511 -0.05117,0.04873 -0.124257,0.07553 -0.07309,0.0268 -0.163239,0.0268 -0.09015,0 -0.163239,-0.0268 -0.07309,-0.0268 -0.124257,-0.07553 -0.05116,-0.04873 -0.0804,-0.114511 -0.0268,-0.06822 -0.0268,-0.148621 z"
           inkscape:connector-curvature="0" />
        <path
           id="path4541"
           style="font-style:normal;font-variant:normal;font-weight:bold;font-stretch:normal;font-size:4.98975754px;line-height:94.99999881%;font-family:Roboto;-inkscape-font-specification:'Roboto, Bold';font-variant-ligatures:normal;font-variant-caps:normal;font-variant-numeric:normal;font-feature-settings:normal;text-align:start;writing-mode:lr-tb;text-anchor:start;fill:#ffffff;fill-opacity:1;stroke-width:0.12474428px"
           d="M 98.753284,77.271448 H 98.046726 V 73.52913 h 0.706558 z"
           inkscape:connector-curvature="0" />
        <path
           id="path4543"
           style="font-style:normal;font-variant:normal;font-weight:bold;font-stretch:normal;font-size:4.98975754px;line-height:94.99999881%;font-family:Roboto;-inkscape-font-specification:'Roboto, Bold';font-variant-ligatures:normal;font-variant-caps:normal;font-variant-numeric:normal;font-feature-settings:normal;text-align:start;writing-mode:lr-tb;text-anchor:start;fill:#ffffff;fill-opacity:1;stroke-width:0.12474428px"
           d="m 100.53917,77.320176 q -0.30699,0 -0.550629,-0.09989 -0.241204,-0.09989 -0.411752,-0.272878 -0.168112,-0.172985 -0.258259,-0.404443 -0.08771,-0.233895 -0.08771,-0.499463 v -0.09502 q 0,-0.299678 0.08527,-0.548191 0.08771,-0.25095 0.246077,-0.431244 0.160803,-0.180294 0.387389,-0.280186 0.229024,-0.102329 0.511644,-0.102329 0.28506,0 0.5019,0.09502 0.21684,0.09258 0.36303,0.263132 0.14862,0.168112 0.22171,0.40688 0.0755,0.238768 0.0755,0.531136 v 0.299678 h -1.678687 q 0.01705,0.129129 0.06822,0.233895 0.0536,0.104765 0.134,0.180294 0.0828,0.07309 0.19247,0.114511 0.10964,0.04142 0.24608,0.04142 0.19248,0 0.35572,-0.07066 0.16323,-0.07309 0.28018,-0.224149 l 0.34597,0.387388 q -0.0633,0.09015 -0.15836,0.175421 -0.095,0.08527 -0.22415,0.153494 -0.12913,0.06578 -0.29237,0.104765 -0.16081,0.04142 -0.35328,0.04142 z m -0.0804,-2.163528 q -0.11451,0 -0.20222,0.04142 -0.0853,0.03898 -0.14863,0.112075 -0.0609,0.07066 -0.0999,0.170548 -0.03898,0.09989 -0.05604,0.221713 h 0.97944 v -0.05604 q -0.002,-0.104766 -0.0317,-0.194913 -0.0268,-0.09015 -0.0853,-0.155929 -0.056,-0.06578 -0.14618,-0.102329 -0.0877,-0.03655 -0.20953,-0.03655 z"
           inkscape:connector-curvature="0" />
      </g>
      <path
         inkscape:connector-curvature="0"
         id="rect4554"
         d="m 87.368792,73.427079 a 0.1250125,0.1250125 45 0 0 -0.0692,0.153846 l 1.224094,3.775257 a 0.1250125,0.1250125 45 0 0 0.15746,0.08035 L 91.1986,76.62027 a 0.1250125,0.1250125 45 0 0 0.08035,-0.15746 l -1.224095,-3.775257 a 0.1250125,0.1250125 45 0 0 -0.15746,-0.08035 l -2.517457,0.816264 a 0.1250125,0.1250125 45 0 0 -0.01115,0.0036 z m 0.207162,0.195643 2.279646,-0.739155 1.146986,3.537446 -2.279646,0.739155 z"
         style="color:#000000;font-style:normal;font-variant:normal;font-weight:normal;font-stretch:normal;font-size:medium;line-height:normal;font-family:sans-serif;font-variant-ligatures:normal;font-variant-position:normal;font-variant-caps:normal;font-variant-numeric:normal;font-variant-alternates:normal;font-feature-settings:normal;text-indent:0;text-align:start;text-decoration:none;text-decoration-line:none;text-decoration-style:solid;text-decoration-color:#000000;letter-spacing:normal;word-spacing:normal;text-transform:none;writing-mode:lr-tb;direction:ltr;text-orientation:mixed;dominant-baseline:auto;baseline-shift:baseline;text-anchor:start;white-space:normal;shape-padding:0;clip-rule:nonzero;display:inline;overflow:visible;visibility:visible;opacity:1;isolation:auto;mix-blend-mode:normal;color-interpolation:sRGB;color-interpolation-filters:linearRGB;solid-color:#000000;solid-opacity:1;vector-effect:none;fill:#ffffff;fill-opacity:1;fill-rule:nonzero;stroke:none;stroke-width:0.25;stroke-linecap:round;stroke-linejoin:round;stroke-miterlimit:4;stroke-dasharray:none;stroke-dashoffset:0;stroke-opacity:1;paint-order:stroke markers fill;color-rendering:auto;image-rendering:auto;shape-rendering:auto;text-rendering:auto;enable-background:accumulate" />
      <path
         inkscape:connector-curvature="0"
         id="rect4556"
         d="m 89.958324,73.427079 2.619818,0.370124 -0.555184,3.929726 -2.619818,-0.370124 z"
         style="fill:#ffffff;fill-opacity:1;fill-rule:nonzero;stroke:#ffffff;stroke-width:0.25;stroke-linecap:round;stroke-linejoin:round;stroke-miterlimit:4;stroke-dasharray:none;stroke-opacity:1" />
    </g>
  </g>
</svg>
