<?xml version="1.0" encoding="UTF-8" standalone="no"?>
<!-- Created with Inkscape (http://www.inkscape.org/) -->

<svg
   xmlns:dc="http://purl.org/dc/elements/1.1/"
   xmlns:cc="http://creativecommons.org/ns#"
   xmlns:rdf="http://www.w3.org/1999/02/22-rdf-syntax-ns#"
   xmlns:svg="http://www.w3.org/2000/svg"
   xmlns="http://www.w3.org/2000/svg"
   xmlns:sodipodi="http://sodipodi.sourceforge.net/DTD/sodipodi-0.dtd"
   xmlns:inkscape="http://www.inkscape.org/namespaces/inkscape"
   width="3870.2361"
   height="772.2655"
   viewBox="0 0 1024.0001 204.32856"
   version="1.1"
   id="svg8"
   sodipodi:docname="login-banner.svg"
   inkscape:version="0.92.1 r15371"
   inkscape:export-filename="D:\Dev\Projects\Cards Against Humanity Mobile\src\assets\login-banner.png"
   inkscape:export-xdpi="90"
   inkscape:export-ydpi="90">
  <defs
     id="defs2" />
  <sodipodi:namedview
     id="base"
     pagecolor="#ffffff"
     bordercolor="#666666"
     borderopacity="1.0"
     inkscape:pageopacity="0"
     inkscape:pageshadow="2"
     inkscape:zoom="0.24748737"
     inkscape:cx="1851.6431"
     inkscape:cy="-106.93243"
     inkscape:document-units="mm"
     inkscape:current-layer="layer1"
     showgrid="true"
     inkscape:snap-object-midpoints="false"
     fit-margin-top="0"
     fit-margin-left="0"
     fit-margin-right="0"
     fit-margin-bottom="0"
     inkscape:window-width="1920"
     inkscape:window-height="1017"
     inkscape:window-x="1912"
     inkscape:window-y="-8"
     inkscape:window-maximized="1"
     units="px">
    <inkscape:grid
       type="xygrid"
       id="grid3680"
       originx="-178.63506"
       originy="-626.52721" />
  </sodipodi:namedview>
  <metadata
     id="metadata5">
    <rdf:RDF>
      <cc:Work
         rdf:about="">
        <dc:format>image/svg+xml</dc:format>
        <dc:type
           rdf:resource="http://purl.org/dc/dcmitype/StillImage" />
        <dc:title></dc:title>
      </cc:Work>
    </rdf:RDF>
  </metadata>
  <g
     inkscape:label="Layer 1"
     inkscape:groupmode="layer"
     id="layer1"
     transform="translate(-178.63498,533.85623)">
    <flowRoot
       xml:space="preserve"
       id="flowRoot4509"
       style="font-style:normal;font-weight:normal;font-size:40px;line-height:125%;font-family:Sans;letter-spacing:0px;word-spacing:0px;fill:#000000;fill-opacity:1;stroke:none;stroke-width:1px;stroke-linecap:butt;stroke-linejoin:miter;stroke-opacity:1"><flowRegion
         id="flowRegion4511"><rect
           id="rect4513"
           width="320.21835"
           height="274.76151"
           x="-45.456863"
           y="-24.529238" /></flowRegion><flowPara
         id="flowPara4515" /></flowRoot>    <flowRoot
       xml:space="preserve"
       id="flowRoot4517"
       style="font-style:normal;font-weight:normal;font-size:40px;line-height:125%;font-family:Sans;letter-spacing:0px;word-spacing:0px;fill:#000000;fill-opacity:1;stroke:none;stroke-width:1px;stroke-linecap:butt;stroke-linejoin:miter;stroke-opacity:1"><flowRegion
         id="flowRegion4519"><rect
           id="rect4521"
           width="250.51784"
           height="226.27417"
           x="-35.860416"
           y="-41.701832" /></flowRegion><flowPara
         id="flowPara4523" /></flowRoot>    <flowRoot
       xml:space="preserve"
       id="flowRoot4525"
       style="font-style:normal;font-weight:normal;font-size:40px;line-height:125%;font-family:Sans;letter-spacing:0px;word-spacing:0px;fill:#000000;fill-opacity:1;stroke:none;stroke-width:1px;stroke-linecap:butt;stroke-linejoin:miter;stroke-opacity:1"><flowRegion
         id="flowRegion4527"><rect
           id="rect4529"
           width="96.469566"
           height="78.791901"
           x="68.185295"
           y="61.333729" /></flowRegion><flowPara
         id="flowPara4531" /></flowRoot>    <text
       xml:space="preserve"
       style="font-style:normal;font-variant:normal;font-weight:normal;font-stretch:normal;font-size:10.58333302px;line-height:125%;font-family:Impact;-inkscape-font-specification:Impact;letter-spacing:0px;word-spacing:0px;fill:#ffffff;fill-opacity:1;stroke:none;stroke-width:0.26458332px;stroke-linecap:butt;stroke-linejoin:miter;stroke-opacity:1"
       x="72.060715"
       y="74.18679"
       id="text4535"><tspan
         sodipodi:role="line"
         id="tspan4533"
         x="72.060715"
         y="84.781578"
         style="font-style:normal;font-variant:normal;font-weight:normal;font-stretch:normal;font-family:Impact;-inkscape-font-specification:Impact;fill:#ffffff;fill-opacity:1;stroke-width:0.26458332px" /></text>
    <text
       xml:space="preserve"
       style="font-style:normal;font-weight:normal;font-size:10.58333302px;line-height:125%;font-family:Sans;letter-spacing:0px;word-spacing:0px;fill:#000000;fill-opacity:1;stroke:none;stroke-width:0.26458332px;stroke-linecap:butt;stroke-linejoin:miter;stroke-opacity:1"
       x="99.244293"
       y="-221.13226"
       id="text4565"><tspan
         sodipodi:role="line"
         id="tspan4563"
         x="99.244293"
         y="-211.47676"
         style="stroke-width:0.26458332px" /></text>
    <text
       xml:space="preserve"
       style="font-style:normal;font-weight:normal;font-size:10.58333302px;line-height:125%;font-family:Sans;letter-spacing:0px;word-spacing:0px;fill:#000000;fill-opacity:1;stroke:none;stroke-width:0.26458332px;stroke-linecap:butt;stroke-linejoin:miter;stroke-opacity:1"
       x="191.47047"
       y="-217.35249"
       id="text4569"><tspan
         sodipodi:role="line"
         id="tspan4567"
         x="191.47047"
         y="-207.69699"
         style="stroke-width:0.26458332px" /></text>
    <text
       xml:space="preserve"
       style="font-style:normal;font-weight:normal;font-size:10.58333302px;line-height:125%;font-family:Sans;letter-spacing:0px;word-spacing:0px;fill:#ffffff;fill-opacity:1;stroke:none;stroke-width:0.26458332px;stroke-linecap:butt;stroke-linejoin:miter;stroke-opacity:1"
       x="100.18923"
       y="-221.51024"
       id="text4573"><tspan
         sodipodi:role="line"
         id="tspan4571"
         x="100.18923"
         y="-211.85474"
         style="fill:#ffffff;fill-opacity:1;stroke-width:0.26458332px" /></text>
    <g
       aria-label="Cards "
       style="font-style:normal;font-variant:normal;font-weight:normal;font-stretch:normal;font-size:10.58333302px;line-height:125%;font-family:Roboto;-inkscape-font-specification:'Roboto, Normal';font-variant-ligatures:normal;font-variant-caps:normal;font-variant-numeric:normal;font-feature-settings:normal;text-align:start;letter-spacing:0px;word-spacing:0px;writing-mode:lr-tb;text-anchor:start;fill:#000000;fill-opacity:1;stroke:none;stroke-width:0.26458332px;stroke-linecap:butt;stroke-linejoin:miter;stroke-opacity:1"
       id="text4524"
       transform="matrix(14.396709,0,0,10.370428,-2350.5217,3091.6042)">
      <path
         d="m 181.97538,-343.64146 q -0.0258,0.58911 -0.25321,1.08004 -0.22738,0.48576 -0.63045,0.83716 -0.40308,0.34623 -0.96635,0.5426 -0.56328,0.1912 -1.26091,0.1912 -0.75447,0 -1.34875,-0.25321 -0.58911,-0.25322 -1.00253,-0.72347 -0.40824,-0.47543 -0.62528,-1.15239 -0.21187,-0.68213 -0.21187,-1.52962 v -0.40824 q 0,-0.8475 0.2222,-1.52446 0.22738,-0.68213 0.64079,-1.15755 0.41858,-0.47542 1.00252,-0.72864 0.58395,-0.25838 1.30225,-0.25838 0.73381,0 1.29708,0.20671 0.56844,0.20153 0.96118,0.56327 0.39274,0.36173 0.61495,0.85783 0.22221,0.49609 0.27389,1.08004 h -1.80868 q -0.0103,-0.31523 -0.0879,-0.55811 -0.0724,-0.24288 -0.23254,-0.40308 -0.1602,-0.16019 -0.40825,-0.24288 -0.24804,-0.0827 -0.60978,-0.0827 -0.3359,0 -0.58394,0.12403 -0.24805,0.12402 -0.41341,0.39274 -0.16537,0.26871 -0.24805,0.69763 -0.0775,0.42374 -0.0775,1.02319 v 0.41858 q 0,0.59945 0.0724,1.02319 0.0724,0.42375 0.22738,0.69764 0.16019,0.26871 0.41341,0.39274 0.25838,0.12402 0.63045,0.12402 0.62529,0 0.95602,-0.29456 0.33072,-0.29455 0.35139,-0.93534 z"
         style="font-style:normal;font-variant:normal;font-weight:normal;font-stretch:normal;font-size:10.58333302px;font-family:Roboto;-inkscape-font-specification:'Roboto, Normal';font-variant-ligatures:normal;font-variant-caps:normal;font-variant-numeric:normal;font-feature-settings:normal;text-align:start;writing-mode:lr-tb;text-anchor:start;stroke-width:0.26458332px"
         id="path4570"
         inkscape:connector-curvature="0" />
      <path
         d="m 185.90279,-341.09381 q -0.0568,-0.10335 -0.0982,-0.22738 -0.0362,-0.12919 -0.0672,-0.27388 -0.20154,0.25321 -0.52194,0.42891 -0.32039,0.1757 -0.82165,0.1757 -0.38757,0 -0.73381,-0.12402 -0.34106,-0.12403 -0.59944,-0.34107 -0.25838,-0.2222 -0.41341,-0.53226 -0.14987,-0.31006 -0.14987,-0.68213 0,-0.43408 0.15503,-0.77515 0.1602,-0.34106 0.48059,-0.57361 0.32557,-0.23771 0.81649,-0.36173 0.4961,-0.12919 1.17306,-0.12919 h 0.53743 v -0.29456 q 0,-0.35657 -0.15503,-0.56327 -0.15503,-0.20671 -0.51159,-0.20671 -0.29973,0 -0.45992,0.14986 -0.1602,0.14987 -0.1602,0.45992 h -1.7415 q 0,-0.38757 0.17054,-0.72347 0.1757,-0.33589 0.49609,-0.57877 0.32039,-0.24288 0.76998,-0.38241 0.45475,-0.13952 1.01286,-0.13952 0.50126,0 0.925,0.12402 0.42892,0.12402 0.73898,0.37724 0.31006,0.24804 0.48576,0.62528 0.1757,0.37207 0.1757,0.86817 v 2.28926 q 0,0.27389 0.0155,0.47543 0.0155,0.20153 0.0465,0.35656 0.031,0.14986 0.0723,0.26872 0.0465,0.11886 0.10336,0.22221 v 0.0879 z m -1.09037,-1.13688 q 0.32556,0 0.53743,-0.13953 0.21704,-0.13953 0.31006,-0.31523 v -0.894 h -0.54777 q -0.24288,0 -0.41341,0.0672 -0.16536,0.0672 -0.26872,0.18087 -0.0982,0.11369 -0.14469,0.26355 -0.0413,0.14469 -0.0413,0.30489 0,0.23771 0.16019,0.38757 0.1602,0.1447 0.40825,0.1447 z"
         style="font-style:normal;font-variant:normal;font-weight:normal;font-stretch:normal;font-size:10.58333302px;font-family:Roboto;-inkscape-font-specification:'Roboto, Normal';font-variant-ligatures:normal;font-variant-caps:normal;font-variant-numeric:normal;font-feature-settings:normal;text-align:start;writing-mode:lr-tb;text-anchor:start;stroke-width:0.26458332px"
         id="path4572"
         inkscape:connector-curvature="0" />
      <path
         d="m 191.73706,-345.10907 q -0.0517,-0.005 -0.12919,-0.0103 -0.0724,-0.0103 -0.15503,-0.0155 -0.0775,-0.005 -0.15503,-0.0103 -0.0775,-0.005 -0.13436,-0.005 -0.41858,0 -0.67696,0.12919 -0.25838,0.12402 -0.37724,0.38757 v 3.53984 h -1.74149 v -5.59139 h 1.63297 l 0.0568,0.7183 q 0.2067,-0.38757 0.51159,-0.60461 0.31006,-0.21704 0.71314,-0.21704 0.12919,0 0.25321,0.0155 0.12919,0.0155 0.23255,0.0465 z"
         style="font-style:normal;font-variant:normal;font-weight:normal;font-stretch:normal;font-size:10.58333302px;font-family:Roboto;-inkscape-font-specification:'Roboto, Normal';font-variant-ligatures:normal;font-variant-caps:normal;font-variant-numeric:normal;font-feature-settings:normal;text-align:start;writing-mode:lr-tb;text-anchor:start;stroke-width:0.26458332px"
         id="path4574"
         inkscape:connector-curvature="0" />
      <path
         d="m 192.04195,-343.93085 q 0,-0.63562 0.13953,-1.16272 0.13952,-0.5271 0.41341,-0.90433 0.27388,-0.37724 0.67696,-0.58395 0.40824,-0.2067 0.94568,-0.2067 0.39791,0 0.70797,0.15503 0.31005,0.15502 0.55293,0.43408 v -2.83187 h 1.74667 v 7.9375 h -1.5658 l -0.0879,-0.59945 q -0.24805,0.32556 -0.58394,0.51677 -0.3359,0.18603 -0.78032,0.18603 -0.53226,0 -0.93534,-0.21187 -0.40308,-0.21704 -0.67696,-0.59428 -0.27389,-0.37724 -0.41341,-0.894 -0.13953,-0.52193 -0.13953,-1.13172 z m 1.7415,0.10852 q 0,0.31523 0.0413,0.58911 0.0413,0.26872 0.13952,0.47026 0.10336,0.20154 0.26872,0.31523 0.17053,0.11368 0.41858,0.11368 0.29456,0 0.50126,-0.12402 0.20671,-0.12919 0.32556,-0.36173 v -2.12907 q -0.23771,-0.4961 -0.81648,-0.4961 -0.24288,0 -0.41342,0.11369 -0.16536,0.11369 -0.26871,0.3204 -0.10336,0.20153 -0.14986,0.48059 -0.0465,0.27388 -0.0465,0.59944 z"
         style="font-style:normal;font-variant:normal;font-weight:normal;font-stretch:normal;font-size:10.58333302px;font-family:Roboto;-inkscape-font-specification:'Roboto, Normal';font-variant-ligatures:normal;font-variant-caps:normal;font-variant-numeric:normal;font-feature-settings:normal;text-align:start;writing-mode:lr-tb;text-anchor:start;stroke-width:0.26458332px"
         id="path4576"
         inkscape:connector-curvature="0" />
      <path
         d="m 201.14217,-342.66477 q 0,-0.10853 -0.0517,-0.19121 -0.0465,-0.0827 -0.17053,-0.15503 -0.12402,-0.0775 -0.33589,-0.14469 -0.21188,-0.0672 -0.53744,-0.13953 -0.40824,-0.0879 -0.76998,-0.22737 -0.35657,-0.1447 -0.62528,-0.3514 -0.26355,-0.21188 -0.41858,-0.4961 -0.14986,-0.28422 -0.14986,-0.65112 0,-0.35657 0.14986,-0.67696 0.15503,-0.32039 0.44958,-0.56327 0.29456,-0.24288 0.72347,-0.38241 0.42892,-0.14469 0.97669,-0.14469 0.56327,0 1.01802,0.13436 0.45476,0.13435 0.76998,0.37723 0.3204,0.23771 0.49093,0.57361 0.17053,0.33073 0.17053,0.73381 h -1.74666 q 0,-0.3204 -0.1602,-0.4961 -0.1602,-0.1757 -0.54777,-0.1757 -0.13436,0 -0.25322,0.0413 -0.11368,0.0362 -0.20153,0.10852 -0.0879,0.0672 -0.13953,0.16537 -0.0517,0.0982 -0.0517,0.21704 0,0.22738 0.21704,0.37207 0.22221,0.14469 0.71314,0.23771 0.42375,0.0775 0.81132,0.20154 0.39274,0.11886 0.69246,0.32556 0.29973,0.20154 0.47543,0.50643 0.18086,0.30489 0.18086,0.74931 0,0.37207 -0.17053,0.6873 -0.17053,0.31522 -0.49092,0.54777 -0.31523,0.22737 -0.76482,0.36173 -0.44958,0.12919 -1.01285,0.12919 -0.60462,0 -1.06971,-0.17053 -0.45992,-0.17053 -0.77514,-0.43925 -0.31006,-0.27389 -0.47026,-0.60978 -0.16019,-0.34107 -0.16019,-0.67696 h 1.6278 q 0.0103,0.38757 0.25839,0.56844 0.24804,0.1757 0.63562,0.1757 0.35656,0 0.53226,-0.1447 0.18087,-0.14469 0.18087,-0.37723 z"
         style="font-style:normal;font-variant:normal;font-weight:normal;font-stretch:normal;font-size:10.58333302px;font-family:Roboto;-inkscape-font-specification:'Roboto, Normal';font-variant-ligatures:normal;font-variant-caps:normal;font-variant-numeric:normal;font-feature-settings:normal;text-align:start;writing-mode:lr-tb;text-anchor:start;stroke-width:0.26458332px"
         id="path4578"
         inkscape:connector-curvature="0" />
    </g>
    <g
       aria-label="Against"
       style="font-style:normal;font-variant:normal;font-weight:normal;font-stretch:normal;font-size:10.58333302px;line-height:125%;font-family:Roboto;-inkscape-font-specification:'Roboto, Normal';font-variant-ligatures:normal;font-variant-caps:normal;font-variant-numeric:normal;font-feature-settings:normal;text-align:start;letter-spacing:0px;word-spacing:0px;writing-mode:lr-tb;text-anchor:start;fill:#00001c;fill-opacity:1;stroke:none;stroke-width:0.47;stroke-linecap:butt;stroke-linejoin:miter;stroke-miterlimit:4;stroke-dasharray:none;stroke-opacity:0.978836"
       id="text4536"
       transform="matrix(14.396709,0,0,10.370428,-2500.1969,3085.1255)">
      <path
         d="m 225.31042,-341.89535 h -2.48564 l -0.43408,1.4056 h -1.93786 l 2.75952,-7.52408 h 1.70532 l 2.78019,7.52408 h -1.9482 z m -2.05155,-1.40043 h 1.61747 l -0.81132,-2.60966 z"
         style="font-style:normal;font-variant:normal;font-weight:normal;font-stretch:normal;font-size:10.58333302px;font-family:Roboto;-inkscape-font-specification:'Roboto, Normal';font-variant-ligatures:normal;font-variant-caps:normal;font-variant-numeric:normal;font-feature-settings:normal;text-align:start;writing-mode:lr-tb;text-anchor:start;fill:#00001c;fill-opacity:1;stroke:none;stroke-width:0.47;stroke-miterlimit:4;stroke-dasharray:none;stroke-opacity:0.978836"
         id="path4555"
         inkscape:connector-curvature="0" />
      <path
         d="m 227.96659,-343.32678 q 0,-0.63562 0.15503,-1.16272 0.16019,-0.5271 0.45475,-0.90434 0.29972,-0.37724 0.72347,-0.58394 0.42891,-0.20671 0.96118,-0.20671 0.47542,0 0.80099,0.15503 0.33073,0.15503 0.56327,0.43408 l 0.062,-0.48576 h 1.5813 v 5.37435 q 0,0.58395 -0.20671,1.03353 -0.2067,0.44959 -0.58394,0.75448 -0.37207,0.31006 -0.89917,0.47025 -0.52193,0.1602 -1.15755,0.1602 -0.27905,0 -0.57878,-0.0568 -0.29455,-0.0517 -0.56844,-0.1602 -0.27388,-0.10335 -0.51676,-0.25838 -0.23771,-0.15503 -0.40825,-0.36174 l 0.72864,-1.02319 q 0.20671,0.24288 0.5271,0.40824 0.32039,0.16537 0.75448,0.16537 0.56844,0 0.86299,-0.29973 0.29456,-0.29455 0.29456,-0.84232 v -0.22221 q -0.23771,0.26355 -0.54777,0.40824 -0.31006,0.1447 -0.7183,0.1447 -0.53227,0 -0.95602,-0.21188 -0.42374,-0.21704 -0.7183,-0.59428 -0.29456,-0.37723 -0.45475,-0.894 -0.15503,-0.52193 -0.15503,-1.13171 z m 1.74666,0.10852 q 0,0.31522 0.0569,0.58911 0.062,0.26872 0.18086,0.47026 0.12403,0.20153 0.31006,0.31522 0.18604,0.11369 0.43408,0.11369 0.29456,0 0.4961,-0.0982 0.20154,-0.0982 0.32556,-0.27905 v -2.35128 q -0.12402,-0.18603 -0.32556,-0.28422 -0.19637,-0.0982 -0.48576,-0.0982 -0.24288,0 -0.42892,0.11369 -0.18603,0.11368 -0.31005,0.32039 -0.12403,0.20154 -0.19121,0.48059 -0.062,0.27389 -0.062,0.59945 z"
         style="font-style:normal;font-variant:normal;font-weight:normal;font-stretch:normal;font-size:10.58333302px;font-family:Roboto;-inkscape-font-specification:'Roboto, Normal';font-variant-ligatures:normal;font-variant-caps:normal;font-variant-numeric:normal;font-feature-settings:normal;text-align:start;writing-mode:lr-tb;text-anchor:start;fill:#00001c;fill-opacity:1;stroke:none;stroke-width:0.47;stroke-miterlimit:4;stroke-dasharray:none;stroke-opacity:0.978836"
         id="path4557"
         inkscape:connector-curvature="0" />
      <path
         d="m 237.41821,-340.48975 q -0.0568,-0.10335 -0.0982,-0.22737 -0.0362,-0.12919 -0.0672,-0.27389 -0.20154,0.25322 -0.52193,0.42892 -0.32039,0.1757 -0.82165,0.1757 -0.38758,0 -0.73381,-0.12403 -0.34106,-0.12402 -0.59945,-0.34106 -0.25838,-0.22221 -0.41341,-0.53227 -0.14986,-0.31006 -0.14986,-0.68213 0,-0.43408 0.15503,-0.77514 0.1602,-0.34107 0.48059,-0.57361 0.32556,-0.23771 0.81649,-0.36174 0.49609,-0.12919 1.17305,-0.12919 h 0.53744 v -0.29455 q 0,-0.35657 -0.15503,-0.56328 -0.15503,-0.2067 -0.5116,-0.2067 -0.29972,0 -0.45992,0.14986 -0.16019,0.14986 -0.16019,0.45992 h -1.7415 q 0,-0.38757 0.17053,-0.72347 0.1757,-0.3359 0.4961,-0.57878 0.32039,-0.24288 0.76997,-0.3824 0.45476,-0.13953 1.01286,-0.13953 0.50126,0 0.92501,0.12402 0.42891,0.12403 0.73897,0.37724 0.31006,0.24805 0.48576,0.62529 0.1757,0.37207 0.1757,0.86816 v 2.28927 q 0,0.27388 0.0155,0.47542 0.0155,0.20154 0.0465,0.35657 0.031,0.14986 0.0724,0.26872 0.0465,0.11885 0.10335,0.2222 v 0.0879 z m -1.09038,-1.13688 q 0.32557,0 0.53744,-0.13952 0.21704,-0.13953 0.31006,-0.31523 v -0.894 h -0.54777 q -0.24288,0 -0.41341,0.0672 -0.16537,0.0672 -0.26872,0.18086 -0.0982,0.11369 -0.14469,0.26355 -0.0413,0.1447 -0.0413,0.3049 0,0.23771 0.1602,0.38757 0.1602,0.14469 0.40824,0.14469 z"
         style="font-style:normal;font-variant:normal;font-weight:normal;font-stretch:normal;font-size:10.58333302px;font-family:Roboto;-inkscape-font-specification:'Roboto, Normal';font-variant-ligatures:normal;font-variant-caps:normal;font-variant-numeric:normal;font-feature-settings:normal;text-align:start;writing-mode:lr-tb;text-anchor:start;fill:#00001c;fill-opacity:1;stroke:none;stroke-width:0.47;stroke-miterlimit:4;stroke-dasharray:none;stroke-opacity:0.978836"
         id="path4559"
         inkscape:connector-curvature="0" />
      <path
         d="m 241.70735,-340.48975 h -1.74666 v -5.59139 h 1.74666 z m -1.85001,-7.03316 q 0,-0.18603 0.0672,-0.34106 0.0724,-0.15503 0.20154,-0.26872 0.12919,-0.11369 0.30489,-0.1757 0.1757,-0.062 0.39274,-0.062 0.21705,0 0.39275,0.062 0.1757,0.062 0.30489,0.1757 0.12919,0.11369 0.19637,0.26872 0.0723,0.15503 0.0723,0.34106 0,0.18604 -0.0723,0.34107 -0.0672,0.15503 -0.19637,0.26871 -0.12919,0.11369 -0.30489,0.1757 -0.1757,0.062 -0.39275,0.062 -0.21704,0 -0.39274,-0.062 -0.1757,-0.062 -0.30489,-0.1757 -0.12919,-0.11368 -0.20154,-0.26871 -0.0672,-0.15503 -0.0672,-0.34107 z"
         style="font-style:normal;font-variant:normal;font-weight:normal;font-stretch:normal;font-size:10.58333302px;font-family:Roboto;-inkscape-font-specification:'Roboto, Normal';font-variant-ligatures:normal;font-variant-caps:normal;font-variant-numeric:normal;font-feature-settings:normal;text-align:start;writing-mode:lr-tb;text-anchor:start;fill:#00001c;fill-opacity:1;stroke:none;stroke-width:0.47;stroke-miterlimit:4;stroke-dasharray:none;stroke-opacity:0.978836"
         id="path4561"
         inkscape:connector-curvature="0" />
      <path
         d="m 244.38419,-346.08114 0.0568,0.65629 q 0.28423,-0.37207 0.6873,-0.56327 0.40825,-0.19637 0.90951,-0.19637 0.38757,0 0.70796,0.11369 0.32557,0.10852 0.55811,0.3669 0.23254,0.25322 0.35657,0.6718 0.12919,0.41341 0.12919,1.02319 v 3.51916 H 246.043 v -3.52433 q 0,-0.25321 -0.0568,-0.41341 -0.0517,-0.1602 -0.15503,-0.25321 -0.0982,-0.093 -0.24805,-0.12403 -0.14469,-0.0362 -0.33073,-0.0362 -0.27905,0 -0.46508,0.10852 -0.18087,0.10852 -0.29456,0.29455 v 3.94808 h -1.74149 v -5.59139 z"
         style="font-style:normal;font-variant:normal;font-weight:normal;font-stretch:normal;font-size:10.58333302px;font-family:Roboto;-inkscape-font-specification:'Roboto, Normal';font-variant-ligatures:normal;font-variant-caps:normal;font-variant-numeric:normal;font-feature-settings:normal;text-align:start;writing-mode:lr-tb;text-anchor:start;fill:#00001c;fill-opacity:1;stroke:none;stroke-width:0.47;stroke-miterlimit:4;stroke-dasharray:none;stroke-opacity:0.978836"
         id="path4563"
         inkscape:connector-curvature="0" />
      <path
         d="m 251.68607,-342.06071 q 0,-0.10852 -0.0517,-0.1912 -0.0465,-0.0827 -0.17053,-0.15503 -0.12402,-0.0775 -0.3359,-0.1447 -0.21187,-0.0672 -0.53743,-0.13952 -0.40824,-0.0879 -0.76998,-0.22738 -0.35657,-0.14469 -0.62528,-0.3514 -0.26355,-0.21187 -0.41858,-0.49609 -0.14986,-0.28422 -0.14986,-0.65112 0,-0.35657 0.14986,-0.67697 0.15503,-0.32039 0.44958,-0.56327 0.29456,-0.24288 0.72347,-0.3824 0.42892,-0.1447 0.97669,-0.1447 0.56327,0 1.01802,0.13436 0.45475,0.13436 0.76998,0.37724 0.32039,0.23771 0.49093,0.57361 0.17053,0.33073 0.17053,0.7338 h -1.74666 q 0,-0.32039 -0.1602,-0.49609 -0.1602,-0.1757 -0.54777,-0.1757 -0.13436,0 -0.25322,0.0413 -0.11368,0.0362 -0.20153,0.10852 -0.0879,0.0672 -0.13953,0.16536 -0.0517,0.0982 -0.0517,0.21705 0,0.22737 0.21704,0.37207 0.22221,0.14469 0.71314,0.23771 0.42375,0.0775 0.81132,0.20154 0.39274,0.11885 0.69246,0.32556 0.29973,0.20153 0.47543,0.50643 0.18086,0.30489 0.18086,0.7493 0,0.37207 -0.17053,0.6873 -0.17053,0.31523 -0.49092,0.54777 -0.31523,0.22738 -0.76482,0.36174 -0.44958,0.12919 -1.01285,0.12919 -0.60462,0 -1.06971,-0.17054 -0.45992,-0.17053 -0.77514,-0.43925 -0.31006,-0.27388 -0.47026,-0.60978 -0.16019,-0.34106 -0.16019,-0.67696 h 1.6278 q 0.0103,0.38757 0.25839,0.56844 0.24804,0.1757 0.63562,0.1757 0.35656,0 0.53226,-0.14469 0.18087,-0.1447 0.18087,-0.37724 z"
         style="font-style:normal;font-variant:normal;font-weight:normal;font-stretch:normal;font-size:10.58333302px;font-family:Roboto;-inkscape-font-specification:'Roboto, Normal';font-variant-ligatures:normal;font-variant-caps:normal;font-variant-numeric:normal;font-feature-settings:normal;text-align:start;writing-mode:lr-tb;text-anchor:start;fill:#00001c;fill-opacity:1;stroke:none;stroke-width:0.47;stroke-miterlimit:4;stroke-dasharray:none;stroke-opacity:0.978836"
         id="path4565"
         inkscape:connector-curvature="0" />
      <path
         d="m 256.20259,-347.47123 v 1.39009 h 0.91984 v 1.20923 h -0.91984 v 2.55799 q 0,0.16536 0.0258,0.27388 0.031,0.10852 0.093,0.1757 0.0672,0.062 0.1757,0.0879 0.10852,0.0258 0.26871,0.0258 0.14986,0 0.24805,-0.005 0.0982,-0.0103 0.18603,-0.0258 v 1.24541 q -0.22737,0.0723 -0.46508,0.10852 -0.23771,0.0413 -0.51677,0.0413 -0.41858,0 -0.74931,-0.0982 -0.32556,-0.093 -0.55293,-0.29972 -0.22221,-0.20671 -0.34107,-0.53227 -0.11369,-0.32556 -0.11369,-0.78031 v -2.77503 h -0.71313 v -1.20923 h 0.71313 v -1.39009 z"
         style="font-style:normal;font-variant:normal;font-weight:normal;font-stretch:normal;font-size:10.58333302px;font-family:Roboto;-inkscape-font-specification:'Roboto, Normal';font-variant-ligatures:normal;font-variant-caps:normal;font-variant-numeric:normal;font-feature-settings:normal;text-align:start;writing-mode:lr-tb;text-anchor:start;fill:#00001c;fill-opacity:1;stroke:none;stroke-width:0.47;stroke-miterlimit:4;stroke-dasharray:none;stroke-opacity:0.978836"
         id="path4567"
         inkscape:connector-curvature="0" />
    </g>
    <g
       aria-label="Mobile"
       style="font-style:normal;font-variant:normal;font-weight:normal;font-stretch:normal;font-size:10.58333302px;line-height:125%;font-family:Roboto;-inkscape-font-specification:'Roboto, Normal';font-variant-ligatures:normal;font-variant-caps:normal;font-variant-numeric:normal;font-feature-settings:normal;text-align:start;letter-spacing:0px;word-spacing:0px;writing-mode:lr-tb;text-anchor:start;fill:#ffffff;fill-opacity:1;stroke:#000000;stroke-width:0.47;stroke-linecap:butt;stroke-linejoin:miter;stroke-miterlimit:4;stroke-dasharray:none;stroke-opacity:0.978836"
       id="text4540"
       transform="matrix(14.396709,0,0,10.370428,-3218.111,3065.9834)">
      <path
         d="m 258.09875,-335.28495 1.67948,5.23482 1.67432,-5.23482 H 263.84 v 7.52409 h -1.81901 v -1.757 l 0.1757,-3.59668 -1.81901,5.35368 h -1.19889 l -1.82418,-5.35885 0.1757,3.60185 v 1.757 h -1.81384 v -7.52409 z"
         style="font-style:normal;font-variant:normal;font-weight:normal;font-stretch:normal;font-size:10.58333302px;font-family:Roboto;-inkscape-font-specification:'Roboto, Normal';font-variant-ligatures:normal;font-variant-caps:normal;font-variant-numeric:normal;font-feature-settings:normal;text-align:start;writing-mode:lr-tb;text-anchor:start;fill:#ffffff;fill-opacity:1;stroke:#000000;stroke-width:0.47;stroke-miterlimit:4;stroke-dasharray:none;stroke-opacity:0.978836"
         id="path4542"
         inkscape:connector-curvature="0" />
      <path
         d="m 264.69783,-330.60824 q 0,-0.60978 0.1757,-1.13171 0.1757,-0.52193 0.51676,-0.90434 0.34107,-0.3824 0.84233,-0.59428 0.50643,-0.21704 1.15755,-0.21704 0.66146,0 1.16272,0.21704 0.50643,0.21188 0.8475,0.59428 0.34106,0.38241 0.51676,0.90434 0.1757,0.52193 0.1757,1.13171 v 0.10852 q 0,0.61495 -0.1757,1.13689 -0.17053,0.51676 -0.5116,0.89917 -0.34106,0.37723 -0.84749,0.59428 -0.50126,0.21187 -1.15755,0.21187 -0.65629,0 -1.16272,-0.21187 -0.50126,-0.21705 -0.8475,-0.59428 -0.34106,-0.38241 -0.51676,-0.89917 -0.1757,-0.52194 -0.1757,-1.13689 z m 1.7415,0.10852 q 0,0.31523 0.0413,0.58912 0.0465,0.27388 0.15503,0.47542 0.11368,0.20154 0.29972,0.32039 0.18603,0.11369 0.46509,0.11369 0.27388,0 0.45475,-0.11369 0.18603,-0.11885 0.29456,-0.32039 0.10852,-0.20154 0.15502,-0.47542 0.0465,-0.27389 0.0465,-0.58912 v -0.10852 q 0,-0.30489 -0.0465,-0.57877 -0.0413,-0.27389 -0.15502,-0.47542 -0.10853,-0.20671 -0.29456,-0.32557 -0.18604,-0.12402 -0.46509,-0.12402 -0.27388,0 -0.45992,0.12402 -0.18087,0.11886 -0.28939,0.32557 -0.10852,0.20153 -0.15503,0.47542 -0.0465,0.27388 -0.0465,0.57877 z"
         style="font-style:normal;font-variant:normal;font-weight:normal;font-stretch:normal;font-size:10.58333302px;font-family:Roboto;-inkscape-font-specification:'Roboto, Normal';font-variant-ligatures:normal;font-variant-caps:normal;font-variant-numeric:normal;font-feature-settings:normal;text-align:start;writing-mode:lr-tb;text-anchor:start;fill:#ffffff;fill-opacity:1;stroke:#000000;stroke-width:0.47;stroke-miterlimit:4;stroke-dasharray:none;stroke-opacity:0.978836"
         id="path4544"
         inkscape:connector-curvature="0" />
      <path
         d="m 276.06148,-330.51005 q 0,0.63562 -0.12919,1.16272 -0.12919,0.52193 -0.39791,0.89917 -0.26872,0.37207 -0.67696,0.58394 -0.40825,0.20671 -0.96635,0.20671 -0.45992,0 -0.79582,-0.1757 -0.33073,-0.18087 -0.57878,-0.50126 l -0.0723,0.57361 h -1.56063 v -7.9375 h 1.74149 v 2.79569 q 0.23255,-0.26355 0.54261,-0.40824 0.31006,-0.1447 0.71313,-0.1447 0.56327,0 0.97152,0.21188 0.41341,0.21187 0.68213,0.59428 0.26872,0.37723 0.39791,0.89917 0.12919,0.51676 0.12919,1.13171 z m -1.74667,-0.10852 q 0,-0.30489 -0.0362,-0.57361 -0.031,-0.27388 -0.12919,-0.47542 -0.093,-0.20671 -0.26355,-0.32556 -0.17053,-0.11886 -0.44442,-0.11886 -0.31006,0 -0.51159,0.11886 -0.19637,0.11368 -0.3049,0.33073 v 2.22208 q 0.10853,0.21704 0.3049,0.33073 0.20153,0.11369 0.52193,0.11369 0.28422,0 0.45475,-0.10852 0.17053,-0.11369 0.25838,-0.31006 0.093,-0.20154 0.11886,-0.48059 0.031,-0.27905 0.031,-0.61495 z"
         style="font-style:normal;font-variant:normal;font-weight:normal;font-stretch:normal;font-size:10.58333302px;font-family:Roboto;-inkscape-font-specification:'Roboto, Normal';font-variant-ligatures:normal;font-variant-caps:normal;font-variant-numeric:normal;font-feature-settings:normal;text-align:start;writing-mode:lr-tb;text-anchor:start;fill:#ffffff;fill-opacity:1;stroke:#000000;stroke-width:0.47;stroke-miterlimit:4;stroke-dasharray:none;stroke-opacity:0.978836"
         id="path4546"
         inkscape:connector-curvature="0" />
      <path
         d="m 278.6608,-327.76086 h -1.74666 v -5.59139 h 1.74666 z m -1.85002,-7.03317 q 0,-0.18603 0.0672,-0.34106 0.0724,-0.15503 0.20154,-0.26872 0.12919,-0.11369 0.30489,-0.1757 0.1757,-0.062 0.39274,-0.062 0.21704,0 0.39274,0.062 0.1757,0.062 0.3049,0.1757 0.12919,0.11369 0.19637,0.26872 0.0723,0.15503 0.0723,0.34106 0,0.18604 -0.0723,0.34107 -0.0672,0.15503 -0.19637,0.26872 -0.1292,0.11368 -0.3049,0.1757 -0.1757,0.062 -0.39274,0.062 -0.21704,0 -0.39274,-0.062 -0.1757,-0.062 -0.30489,-0.1757 -0.12919,-0.11369 -0.20154,-0.26872 -0.0672,-0.15503 -0.0672,-0.34107 z"
         style="font-style:normal;font-variant:normal;font-weight:normal;font-stretch:normal;font-size:10.58333302px;font-family:Roboto;-inkscape-font-specification:'Roboto, Normal';font-variant-ligatures:normal;font-variant-caps:normal;font-variant-numeric:normal;font-feature-settings:normal;text-align:start;writing-mode:lr-tb;text-anchor:start;fill:#ffffff;fill-opacity:1;stroke:#000000;stroke-width:0.47;stroke-miterlimit:4;stroke-dasharray:none;stroke-opacity:0.978836"
         id="path4548"
         inkscape:connector-curvature="0" />
      <path
         d="m 281.57535,-327.76086 h -1.74666 v -7.9375 h 1.74666 z"
         style="font-style:normal;font-variant:normal;font-weight:normal;font-stretch:normal;font-size:10.58333302px;font-family:Roboto;-inkscape-font-specification:'Roboto, Normal';font-variant-ligatures:normal;font-variant-caps:normal;font-variant-numeric:normal;font-feature-settings:normal;text-align:start;writing-mode:lr-tb;text-anchor:start;fill:#ffffff;fill-opacity:1;stroke:#000000;stroke-width:0.47;stroke-miterlimit:4;stroke-dasharray:none;stroke-opacity:0.978836"
         id="path4550"
         inkscape:connector-curvature="0" />
      <path
         d="m 285.35807,-327.65751 q -0.68213,0 -1.21957,-0.21704 -0.53743,-0.21704 -0.90433,-0.58911 -0.36691,-0.37207 -0.56328,-0.863 -0.1912,-0.49093 -0.1912,-1.04386 v -0.19637 q 0,-0.60979 0.16536,-1.13689 0.17054,-0.53226 0.50643,-0.91984 0.34107,-0.38757 0.84233,-0.60978 0.50643,-0.22221 1.17822,-0.22221 0.59428,0 1.06454,0.19121 0.47542,0.1912 0.80098,0.54777 0.33073,0.35656 0.50126,0.86299 0.1757,0.50643 0.1757,1.13688 v 0.70797 h -3.46232 q 0.093,0.47026 0.40824,0.73897 0.31523,0.26872 0.81649,0.26872 0.35657,0 0.69763,-0.13436 0.34624,-0.13436 0.59428,-0.44441 l 0.79582,0.94051 q -0.13436,0.18603 -0.34623,0.36173 -0.20671,0.1757 -0.48576,0.31523 -0.27905,0.13436 -0.62529,0.21704 -0.34623,0.0879 -0.7493,0.0879 z m -0.19637,-4.45451 q -0.22221,0 -0.38241,0.0775 -0.1602,0.0775 -0.26872,0.21188 -0.10335,0.13436 -0.16536,0.32039 -0.062,0.18604 -0.093,0.40308 h 1.757 v -0.13436 q 0.0103,-0.41858 -0.21187,-0.64596 -0.22221,-0.23254 -0.63562,-0.23254 z"
         style="font-style:normal;font-variant:normal;font-weight:normal;font-stretch:normal;font-size:10.58333302px;font-family:Roboto;-inkscape-font-specification:'Roboto, Normal';font-variant-ligatures:normal;font-variant-caps:normal;font-variant-numeric:normal;font-feature-settings:normal;text-align:start;writing-mode:lr-tb;text-anchor:start;fill:#ffffff;fill-opacity:1;stroke:#000000;stroke-width:0.47;stroke-miterlimit:4;stroke-dasharray:none;stroke-opacity:0.978836"
         id="path4552"
         inkscape:connector-curvature="0" />
    </g>
    <rect
       style="fill:none;fill-opacity:1;fill-rule:nonzero;stroke:#000000;stroke-width:2.48946095;stroke-linecap:round;stroke-linejoin:round;stroke-miterlimit:4;stroke-dasharray:none;stroke-opacity:0.978836;paint-order:stroke markers fill"
       id="rect4597"
       width="54.007359"
       height="75.310219"
       x="782.56213"
       y="-288.30252"
       transform="matrix(0.93348175,-0.3586249,0.59505185,0.80368731,0,0)" />
    <rect
       style="fill:#00001c;fill-opacity:1;fill-rule:nonzero;stroke:#000000;stroke-width:5.81371737;stroke-linecap:round;stroke-linejoin:round;stroke-miterlimit:4;stroke-dasharray:none;stroke-opacity:0.978836;paint-order:stroke markers fill"
       id="rect4599"
       width="55.328842"
       height="72.596695"
       x="316.91116"
       y="-698.7251"
       transform="matrix(0.96351457,0.26765587,-0.47198346,0.8816074,0,0)" />
  </g>
</svg>
